<svg width="192" height="192" viewBox="0 0 192 192" fill="none" xmlns="http://www.w3.org/2000/svg">
  <!-- Background -->
  <rect width="192" height="192" rx="32" fill="url(#gradient)"/>
  
  <!-- Book icon -->
  <g transform="translate(48, 48)">
    <!-- Book cover -->
    <rect x="12" y="20" width="72" height="84" rx="4" fill="#ffffff" opacity="0.9"/>
    <rect x="16" y="24" width="64" height="76" rx="2" fill="#f8fafc"/>
    
    <!-- Book spine -->
    <rect x="12" y="20" width="8" height="84" rx="4" fill="#e2e8f0"/>
    
    <!-- Pages -->
    <line x1="24" y1="36" x2="72" y2="36" stroke="#64748b" stroke-width="2" stroke-linecap="round"/>
    <line x1="24" y1="44" x2="68" y2="44" stroke="#64748b" stroke-width="2" stroke-linecap="round"/>
    <line x1="24" y1="52" x2="72" y2="52" stroke="#64748b" stroke-width="2" stroke-linecap="round"/>
    <line x1="24" y1="60" x2="64" y2="60" stroke="#64748b" stroke-width="2" stroke-linecap="round"/>
    
    <!-- Bookmark -->
    <path d="M72 20 L84 20 L84 48 L78 42 L72 48 Z" fill="#3b82f6"/>
    
    <!-- Graduation cap -->
    <g transform="translate(20, 68)">
      <ellipse cx="24" cy="20" rx="20" ry="6" fill="#3b82f6"/>
      <rect x="4" y="14" width="40" height="12" rx="6" fill="#1d4ed8"/>
      <rect x="42" y="16" width="4" height="16" rx="2" fill="#1d4ed8"/>
      <circle cx="44" cy="32" r="2" fill="#fbbf24"/>
    </g>
  </g>
  
  <defs>
    <linearGradient id="gradient" x1="0%" y1="0%" x2="100%" y2="100%">
      <stop offset="0%" style="stop-color:#667eea;stop-opacity:1" />
      <stop offset="100%" style="stop-color:#764ba2;stop-opacity:1" />
    </linearGradient>
  </defs>
</svg>
